<?xml version="1.0" encoding="UTF-8"?>
<svg xmlns="http://www.w3.org/2000/svg" width="960" height="960" viewBox="0 0 96 96">
<rect width="96" height="96" fill="#DCB35C"/>
<path stroke="#000" stroke-width=".2" fill="none" d="M2.9,93h90.2m-.2-5H3m0-5h90m0-5H3m0-5h90m0-5H3m0-5h90m0-5H3m0-5h90m0-5H3m0-5h90m0-5H3m0-5h90m0-5H3m0-5h90m0-5H3m0-5h90m0-5H3m-.1-5h90.2M3,3V93m5,0V3m5,0V93m5,0V3m5,0V93m5,0V3m5,0V93m5,0V3m5,0V93m5,0V3m5,0V93m5,0V3m5,0V93m5,0V3m5,0V93m5,0V3m5,0V93m5,0V3m5,0V93m5,0V3"/>
<path stroke="#000" stroke-width="2" stroke-linecap="round" d="M18,78l0,0m30,0l0,0m30,0l0,0m0-30l0,0m-30,0l0,0m-30,0l0,0m0-30l0,0m30,0l0,0m30,0l0,0"/>
</svg>